<svg width="250" height="250" viewBox="0 0 250 250" fill="none" xmlns="http://www.w3.org/2000/svg">
<path d="M10 0H0V10H10V0Z" fill="white"/>
<path d="M20 0H10V10H20V0Z" fill="white"/>
<path d="M30 0H20V10H30V0Z" fill="white"/>
<path d="M40 0H30V10H40V0Z" fill="white"/>
<path d="M50 0H40V10H50V0Z" fill="white"/>
<path d="M60 0H50V10H60V0Z" fill="white"/>
<path d="M70 0H60V10H70V0Z" fill="white"/>
<path d="M90 0H80V10H90V0Z" fill="white"/>
<path d="M100 0H90V10H100V0Z" fill="white"/>
<path d="M110 0H100V10H110V0Z" fill="white"/>
<path d="M120 0H110V10H120V0Z" fill="white"/>
<path d="M140 0H130V10H140V0Z" fill="white"/>
<path d="M150 0H140V10H150V0Z" fill="white"/>
<path d="M160 0H150V10H160V0Z" fill="white"/>
<path d="M170 0H160V10H170V0Z" fill="white"/>
<path d="M190 0H180V10H190V0Z" fill="white"/>
<path d="M200 0H190V10H200V0Z" fill="white"/>
<path d="M210 0H200V10H210V0Z" fill="white"/>
<path d="M220 0H210V10H220V0Z" fill="white"/>
<path d="M230 0H220V10H230V0Z" fill="white"/>
<path d="M240 0H230V10H240V0Z" fill="white"/>
<path d="M250 0H240V10H250V0Z" fill="white"/>
<path d="M10 10H0V20H10V10Z" fill="white"/>
<path d="M70 10H60L60 20H70V10Z" fill="white"/>
<path d="M190 10H180V20H190V10Z" fill="white"/>
<path d="M250 10H240V20H250V10Z" fill="white"/>
<path d="M10 20H0V30H10V20Z" fill="white"/>
<path d="M30 20H20V30H30V20Z" fill="white"/>
<path d="M40 20H30V30H40V20Z" fill="white"/>
<path d="M50 20H40V30H50V20Z" fill="white"/>
<path d="M70 20H60V30H70V20Z" fill="white"/>
<path d="M90 20H80V30H90V20Z" fill="white"/>
<path d="M120 20H110V30H120V20Z" fill="white"/>
<path d="M130 20H120V30H130V20Z" fill="white"/>
<path d="M140 20H130V30H140V20Z" fill="white"/>
<path d="M160 20H150V30H160V20Z" fill="white"/>
<path d="M190 20H180V30H190V20Z" fill="white"/>
<path d="M210 20H200V30H210V20Z" fill="white"/>
<path d="M220 20H210V30H220V20Z" fill="white"/>
<path d="M230 20H220V30H230V20Z" fill="white"/>
<path d="M250 20H240V30H250V20Z" fill="white"/>
<path d="M10 30H0V40H10V30Z" fill="white"/>
<path d="M30 30H20V40H30V30Z" fill="white"/>
<path d="M40 30H30V40H40V30Z" fill="white"/>
<path d="M50 30H40V40H50V30Z" fill="white"/>
<path d="M70 30H60V40H70V30Z" fill="white"/>
<path d="M90 30H80V40H90V30Z" fill="white"/>
<path d="M100 30H90V40H100V30Z" fill="white"/>
<path d="M140 30H130V40H140V30Z" fill="white"/>
<path d="M160 30H150V40H160V30Z" fill="white"/>
<path d="M190 30H180V40H190V30Z" fill="white"/>
<path d="M210 30H200V40H210V30Z" fill="white"/>
<path d="M220 30H210V40H220V30Z" fill="white"/>
<path d="M230 30H220V40H230V30Z" fill="white"/>
<path d="M250 30H240V40H250V30Z" fill="white"/>
<path d="M10 40H0V50H10V40Z" fill="white"/>
<path d="M30 40H20V50H30V40Z" fill="white"/>
<path d="M40 40H30V50H40V40Z" fill="white"/>
<path d="M50 40H40V50H50V40Z" fill="white"/>
<path d="M70 40H60V50H70V40Z" fill="white"/>
<path d="M90 40H80V50H90V40Z" fill="white"/>
<path d="M110 40H100V50H110V40Z" fill="white"/>
<path d="M120 40H110V50H120V40Z" fill="white"/>
<path d="M140 40H130V50H140V40Z" fill="white"/>
<path d="M160 40H150V50H160V40Z" fill="white"/>
<path d="M190 40H180V50H190V40Z" fill="white"/>
<path d="M210 40H200V50H210V40Z" fill="white"/>
<path d="M220 40H210V50H220V40Z" fill="white"/>
<path d="M230 40H220V50H230V40Z" fill="white"/>
<path d="M250 40H240V50H250V40Z" fill="white"/>
<path d="M10 50H0V60H10V50Z" fill="white"/>
<path d="M70 50H60V60H70V50Z" fill="white"/>
<path d="M90 50H80V60H90V50Z" fill="white"/>
<path d="M110 50H100V60H110V50Z" fill="white"/>
<path d="M170 50H160V60H170V50Z" fill="white"/>
<path d="M190 50H180V60H190V50Z" fill="white"/>
<path d="M250 50H240V60H250V50Z" fill="white"/>
<path d="M10 60H0V70H10V60Z" fill="white"/>
<path d="M20 60L10 60V70H20V60Z" fill="white"/>
<path d="M30 60H20V70H30V60Z" fill="white"/>
<path d="M40 60H30V70H40V60Z" fill="white"/>
<path d="M50 60H40V70H50V60Z" fill="white"/>
<path d="M60 60L50 60V70H60L60 60Z" fill="white"/>
<path d="M70 60H60L60 70H70V60Z" fill="white"/>
<path d="M90 60H80V70H90V60Z" fill="white"/>
<path d="M110 60H100V70H110V60Z" fill="white"/>
<path d="M130 60H120V70H130V60Z" fill="white"/>
<path d="M150 60H140V70H150V60Z" fill="white"/>
<path d="M170 60H160V70H170V60Z" fill="white"/>
<path d="M190 60H180V70H190V60Z" fill="white"/>
<path d="M200 60L190 60V70H200V60Z" fill="white"/>
<path d="M210 60H200V70H210V60Z" fill="white"/>
<path d="M220 60H210V70H220V60Z" fill="white"/>
<path d="M230 60H220V70H230V60Z" fill="white"/>
<path d="M240 60L230 60V70H240V60Z" fill="white"/>
<path d="M250 60H240V70H250V60Z" fill="white"/>
<path d="M100 70H90V80H100V70Z" fill="white"/>
<path d="M110 70H100V80H110V70Z" fill="white"/>
<path d="M140 70H130V80H140V70Z" fill="white"/>
<path d="M150 70H140V80H150V70Z" fill="white"/>
<path d="M170 70H160V80H170V70Z" fill="white"/>
<path d="M30 80H20V90H30V80Z" fill="white"/>
<path d="M40 80H30V90H40V80Z" fill="white"/>
<path d="M50 80H40V90H50V80Z" fill="white"/>
<path d="M60 80H50V90H60V80Z" fill="white"/>
<path d="M70 80H60V90H70V80Z" fill="white"/>
<path d="M80 80H70V90H80V80Z" fill="white"/>
<path d="M100 80H90V90H100V80Z" fill="white"/>
<path d="M120 80H110V90H120V80Z" fill="white"/>
<path d="M130 80H120V90H130V80Z" fill="white"/>
<path d="M140 80H130V90H140V80Z" fill="white"/>
<path d="M170 80H160V90H170V80Z" fill="white"/>
<path d="M180 80H170V90H180V80Z" fill="white"/>
<path d="M200 80H190V90H200V80Z" fill="white"/>
<path d="M210 80H200V90H210V80Z" fill="white"/>
<path d="M220 80H210V90H220V80Z" fill="white"/>
<path d="M230 80H220V90H230V80Z" fill="white"/>
<path d="M250 80H240V90H250V80Z" fill="white"/>
<path d="M20 90H10V100H20V90Z" fill="white"/>
<path d="M40 90H30V100H40V90Z" fill="white"/>
<path d="M50 90H40V100H50V90Z" fill="white"/>
<path d="M60 90H50V100H60V90Z" fill="white"/>
<path d="M80 90H70V100H80V90Z" fill="white"/>
<path d="M90 90H80V100H90V90Z" fill="white"/>
<path d="M100 90H90V100H100V90Z" fill="white"/>
<path d="M110 90H100V100H110V90Z" fill="white"/>
<path d="M160 90H150V100H160V90Z" fill="white"/>
<path d="M170 90H160V100H170V90Z" fill="white"/>
<path d="M190 90H180V100H190V90Z" fill="white"/>
<path d="M240 90H230V100H240V90Z" fill="white"/>
<path d="M10 100H0V110H10V100Z" fill="white"/>
<path d="M60 100H50V110H60V100Z" fill="white"/>
<path d="M70 100H60V110H70V100Z" fill="white"/>
<path d="M90 100H80V110H90V100Z" fill="white"/>
<path d="M100 100H90V110H100V100Z" fill="white"/>
<path d="M110 100H100V110H110V100Z" fill="white"/>
<path d="M130 100H120V110H130V100Z" fill="white"/>
<path d="M200 100H190V110H200V100Z" fill="white"/>
<path d="M210 100H200V110H210V100Z" fill="white"/>
<path d="M240 100H230V110H240V100Z" fill="white"/>
<path d="M10 110H0V120H10V110Z" fill="white"/>
<path d="M40 110H30V120H40V110Z" fill="white"/>
<path d="M50 110H40V120H50V110Z" fill="white"/>
<path d="M60 110H50V120H60V110Z" fill="white"/>
<path d="M90 110H80V120H90V110Z" fill="white"/>
<path d="M110 110H100V120H110V110Z" fill="white"/>
<path d="M120 110H110V120H120V110Z" fill="white"/>
<path d="M150 110H140V120H150V110Z" fill="white"/>
<path d="M160 110H150V120H160V110Z" fill="white"/>
<path d="M170 110H160V120H170V110Z" fill="white"/>
<path d="M230 110H220V120H230V110Z" fill="white"/>
<path d="M240 110H230V120H240V110Z" fill="white"/>
<path d="M250 110H240V120H250V110Z" fill="white"/>
<path d="M20 120H10V130H20V120Z" fill="white"/>
<path d="M30 120H20V130H30V120Z" fill="white"/>
<path d="M60 120H50V130H60V120Z" fill="white"/>
<path d="M70 120H60V130H70V120Z" fill="white"/>
<path d="M90 120H80V130H90V120Z" fill="white"/>
<path d="M110 120H100V130H110V120Z" fill="white"/>
<path d="M130 120H120V130H130V120Z" fill="white"/>
<path d="M150 120H140V130H150V120Z" fill="white"/>
<path d="M180 120H170V130H180V120Z" fill="white"/>
<path d="M200 120H190V130H200V120Z" fill="white"/>
<path d="M210 120H200V130H210V120Z" fill="white"/>
<path d="M230 120H220V130H230V120Z" fill="white"/>
<path d="M10 130H0V140H10V130Z" fill="white"/>
<path d="M20 130H10V140H20V130Z" fill="white"/>
<path d="M30 130H20V140H30V130Z" fill="white"/>
<path d="M100 130H90V140H100V130Z" fill="white"/>
<path d="M110 130H100V140H110V130Z" fill="white"/>
<path d="M120 130H110V140H120V130Z" fill="white"/>
<path d="M180 130H170V140H180V130Z" fill="white"/>
<path d="M190 130H180V140H190V130Z" fill="white"/>
<path d="M200 130H190V140H200V130Z" fill="white"/>
<path d="M20 140H10V150H20V140Z" fill="white"/>
<path d="M40 140H30V150H40V140Z" fill="white"/>
<path d="M70 140H60V150H70V140Z" fill="white"/>
<path d="M80 140H70V150H80V140Z" fill="white"/>
<path d="M100 140H90V150H100V140Z" fill="white"/>
<path d="M110 140H100V150H110V140Z" fill="white"/>
<path d="M130 140H120V150H130V140Z" fill="white"/>
<path d="M160 140H150V150H160V140Z" fill="white"/>
<path d="M180 140H170V150H180V140Z" fill="white"/>
<path d="M190 140H180V150H190V140Z" fill="white"/>
<path d="M210 140H200V150H210V140Z" fill="white"/>
<path d="M240 140H230V150H240V140Z" fill="white"/>
<path d="M10 150L0 150V160H10V150Z" fill="white"/>
<path d="M20 150H10V160H20V150Z" fill="white"/>
<path d="M60 150L50 150V160H60L60 150Z" fill="white"/>
<path d="M80 150H70V160H80V150Z" fill="white"/>
<path d="M90 150H80V160H90V150Z" fill="white"/>
<path d="M110 150H100V160H110V150Z" fill="white"/>
<path d="M120 150H110V160H120V150Z" fill="white"/>
<path d="M150 150L140 150V160H150L150 150Z" fill="white"/>
<path d="M160 150H150L150 160H160V150Z" fill="white"/>
<path d="M170 150H160V160H170V150Z" fill="white"/>
<path d="M180 150H170V160H180V150Z" fill="white"/>
<path d="M210 150H200V160H210V150Z" fill="white"/>
<path d="M240 150H230V160H240V150Z" fill="white"/>
<path d="M20 160H10V170H20V160Z" fill="white"/>
<path d="M30 160H20V170H30V160Z" fill="white"/>
<path d="M50 160H40V170H50V160Z" fill="white"/>
<path d="M70 160H60L60 170H70V160Z" fill="white"/>
<path d="M80 160H70V170H80V160Z" fill="white"/>
<path d="M90 160H80V170H90V160Z" fill="white"/>
<path d="M100 160H90V170H100V160Z" fill="white"/>
<path d="M110 160H100V170H110V160Z" fill="white"/>
<path d="M140 160H130V170H140V160Z" fill="white"/>
<path d="M160 160H150L150 170H160V160Z" fill="white"/>
<path d="M170 160H160V170H170V160Z" fill="white"/>
<path d="M180 160H170V170H180V160Z" fill="white"/>
<path d="M190 160H180V170H190V160Z" fill="white"/>
<path d="M200 160H190V170H200V160Z" fill="white"/>
<path d="M210 160H200V170H210V160Z" fill="white"/>
<path d="M240 160H230V170H240V160Z" fill="white"/>
<path d="M130 170H120V180H130V170Z" fill="white"/>
<path d="M160 170H150V180H160V170Z" fill="white"/>
<path d="M170 170H160V180H170V170Z" fill="white"/>
<path d="M210 170H200V180H210V170Z" fill="white"/>
<path d="M220 170H210V180H220V170Z" fill="white"/>
<path d="M230 170H220V180H230V170Z" fill="white"/>
<path d="M10 180H0V190H10V180Z" fill="white"/>
<path d="M20 180H10V190H20V180Z" fill="white"/>
<path d="M30 180H20V190H30V180Z" fill="white"/>
<path d="M40 180H30V190H40V180Z" fill="white"/>
<path d="M50 180H40V190H50V180Z" fill="white"/>
<path d="M60 180H50V190H60V180Z" fill="white"/>
<path d="M70 180H60V190H70V180Z" fill="white"/>
<path d="M90 180H80V190H90V180Z" fill="white"/>
<path d="M110 180H100V190H110V180Z" fill="white"/>
<path d="M120 180H110V190H120V180Z" fill="white"/>
<path d="M130 180H120V190H130V180Z" fill="white"/>
<path d="M150 180H140V190H150L150 180Z" fill="white"/>
<path d="M170 180H160V190H170V180Z" fill="white"/>
<path d="M190 180H180V190H190V180Z" fill="white"/>
<path d="M210 180H200V190H210V180Z" fill="white"/>
<path d="M220 180H210V190H220V180Z" fill="white"/>
<path d="M240 180H230V190H240V180Z" fill="white"/>
<path d="M10 190H0V200H10V190Z" fill="white"/>
<path d="M70 190H60L60 200H70V190Z" fill="white"/>
<path d="M90 190H80V200H90V190Z" fill="white"/>
<path d="M110 190H100V200H110V190Z" fill="white"/>
<path d="M120 190H110V200H120V190Z" fill="white"/>
<path d="M140 190H130V200H140V190Z" fill="white"/>
<path d="M170 190H160V200H170V190Z" fill="white"/>
<path d="M210 190H200V200H210V190Z" fill="white"/>
<path d="M220 190H210V200H220V190Z" fill="white"/>
<path d="M230 190H220V200H230V190Z" fill="white"/>
<path d="M240 190H230V200H240V190Z" fill="white"/>
<path d="M10 200H0V210H10V200Z" fill="white"/>
<path d="M30 200H20V210H30V200Z" fill="white"/>
<path d="M40 200H30V210H40V200Z" fill="white"/>
<path d="M50 200H40V210H50V200Z" fill="white"/>
<path d="M70 200H60V210H70V200Z" fill="white"/>
<path d="M90 200H80V210H90V200Z" fill="white"/>
<path d="M130 200H120V210H130V200Z" fill="white"/>
<path d="M150 200H140V210H150V200Z" fill="white"/>
<path d="M170 200H160V210H170V200Z" fill="white"/>
<path d="M180 200H170V210H180V200Z" fill="white"/>
<path d="M190 200H180V210H190V200Z" fill="white"/>
<path d="M200 200H190V210H200V200Z" fill="white"/>
<path d="M210 200H200V210H210V200Z" fill="white"/>
<path d="M220 200H210V210H220V200Z" fill="white"/>
<path d="M10 210H0V220H10V210Z" fill="white"/>
<path d="M30 210H20V220H30V210Z" fill="white"/>
<path d="M40 210H30V220H40V210Z" fill="white"/>
<path d="M50 210H40V220H50V210Z" fill="white"/>
<path d="M70 210H60V220H70V210Z" fill="white"/>
<path d="M90 210H80V220H90V210Z" fill="white"/>
<path d="M100 210H90V220H100V210Z" fill="white"/>
<path d="M110 210H100V220H110V210Z" fill="white"/>
<path d="M170 210H160V220H170V210Z" fill="white"/>
<path d="M200 210H190V220H200V210Z" fill="white"/>
<path d="M210 210H200V220H210V210Z" fill="white"/>
<path d="M220 210H210V220H220V210Z" fill="white"/>
<path d="M230 210H220V220H230V210Z" fill="white"/>
<path d="M250 210H240V220H250V210Z" fill="white"/>
<path d="M10 220H0V230H10V220Z" fill="white"/>
<path d="M30 220H20V230H30V220Z" fill="white"/>
<path d="M40 220H30V230H40V220Z" fill="white"/>
<path d="M50 220H40V230H50V220Z" fill="white"/>
<path d="M70 220H60V230H70V220Z" fill="white"/>
<path d="M90 220H80V230H90V220Z" fill="white"/>
<path d="M130 220H120V230H130V220Z" fill="white"/>
<path d="M150 220H140V230H150V220Z" fill="white"/>
<path d="M170 220H160V230H170V220Z" fill="white"/>
<path d="M210 220H200V230H210V220Z" fill="white"/>
<path d="M250 220H240V230H250V220Z" fill="white"/>
<path d="M10 230H0V240H10V230Z" fill="white"/>
<path d="M70 230H60V240H70V230Z" fill="white"/>
<path d="M120 230H110V240H120V230Z" fill="white"/>
<path d="M150 230H140V240H150V230Z" fill="white"/>
<path d="M190 230H180V240H190V230Z" fill="white"/>
<path d="M200 230H190V240H200V230Z" fill="white"/>
<path d="M220 230H210V240H220V230Z" fill="white"/>
<path d="M250 230H240V240H250V230Z" fill="white"/>
<path d="M10 240H0V250H10V240Z" fill="white"/>
<path d="M20 240H10V250H20V240Z" fill="white"/>
<path d="M30 240H20V250H30V240Z" fill="white"/>
<path d="M40 240H30V250H40V240Z" fill="white"/>
<path d="M50 240H40V250H50V240Z" fill="white"/>
<path d="M60 240H50V250H60L60 240Z" fill="white"/>
<path d="M70 240H60L60 250H70V240Z" fill="white"/>
<path d="M110 240H100V250H110V240Z" fill="white"/>
<path d="M120 240H110V250H120V240Z" fill="white"/>
<path d="M150 240H140V250H150V240Z" fill="white"/>
<path d="M160 240H150V250H160V240Z" fill="white"/>
<path d="M190 240H180V250H190V240Z" fill="white"/>
<path d="M200 240H190V250H200V240Z" fill="white"/>
<path d="M210 240H200V250H210V240Z" fill="white"/>
<path d="M220 240H210V250H220V240Z" fill="white"/>
<path d="M230 240H220V250H230V240Z" fill="white"/>
<path d="M240 240H230V250H240V240Z" fill="white"/>
<path d="M250 240H240V250H250V240Z" fill="white"/>
</svg>
